<svg id="Layer_1" data-name="Layer 1" xmlns="http://www.w3.org/2000/svg" viewBox="0 0 250 93.88"><defs><style>.cls-1{fill:#226391;}.cls-2{fill:#3b8d8b;}.cls-3{fill:#24618e;}.cls-4{fill:#835168;}.cls-5{fill:#da9031;}</style></defs><path class="cls-1" d="M25,70.88c0,3.19-1,5.51-3,7s-5.36,2.19-10,2.19H4.15V47.44a78.16,78.16,0,0,1,8-.39q6,0,8.61,1.83c1.78,1.22,2.66,3.25,2.66,6.08a8.71,8.71,0,0,1-.44,2.86,7.73,7.73,0,0,1-1.24,2.32,8.45,8.45,0,0,1-1.88,1.75,7.72,7.72,0,0,1-2.05,1,8.69,8.69,0,0,1,5.3,2.54A7.59,7.59,0,0,1,25,70.88ZM20.36,55a5.55,5.55,0,0,0-.83-3.17A4.86,4.86,0,0,0,16.87,50a18.6,18.6,0,0,0-5.35-.59,38.44,38.44,0,0,0-4.54.2V62h5.61a8.19,8.19,0,0,0,5.64-1.88A6.45,6.45,0,0,0,20.36,55ZM22,71q0-6.59-9.28-6.59H7V77.66h3.56a28.52,28.52,0,0,0,7-.63,5.88,5.88,0,0,0,3.36-2.13A6.53,6.53,0,0,0,22,71Z"/><path class="cls-1" d="M29.39,45.44a3.38,3.38,0,0,1,.49,0,2.31,2.31,0,0,1,1.71.64,2.51,2.51,0,0,1,.63,1.85V75.56a6.91,6.91,0,0,0,.22,2,1.93,1.93,0,0,0,.73,1.07,3.45,3.45,0,0,0,1.54.44v1a7.56,7.56,0,0,1-2,.25,3.53,3.53,0,0,1-1.91-.47,2.65,2.65,0,0,1-1.07-1.44,10.21,10.21,0,0,1-.34-3.12Z"/><path class="cls-1" d="M57.07,80.05H54.24V77.42a9.72,9.72,0,0,1-3.57,2.27,13.21,13.21,0,0,1-4.63.8,8.36,8.36,0,0,1-4.94-1.34,5.59,5.59,0,0,1-2.34-3.64,18.81,18.81,0,0,1-.39-4.34V57.26h.2a2.3,2.3,0,0,1,2.58,2.63V71.17a11.56,11.56,0,0,0,.49,3.66q.93,3.12,5.52,3.12a9.79,9.79,0,0,0,3.39-.61,9.51,9.51,0,0,0,2.71-1.41,2.17,2.17,0,0,0,1-1.54V57.26h.19c1.73,0,2.59.89,2.59,2.68Z"/><path class="cls-1" d="M80.26,77.27c0,.49-.43,1-1.27,1.64a9.87,9.87,0,0,1-3,1.39,13.13,13.13,0,0,1-3.56.49c-3.49,0-6.15-1.05-8-3.13s-2.75-5.11-2.75-9.08A14.22,14.22,0,0,1,63,62.28a9.31,9.31,0,0,1,3.64-4,10.11,10.11,0,0,1,5.27-1.4,8.3,8.3,0,0,1,6.59,2.67,10.5,10.5,0,0,1,2.34,7.2,24.6,24.6,0,0,1-.14,2.49h-16q.1,4.48,2.1,6.86a7.16,7.16,0,0,0,5.76,2.36,9.63,9.63,0,0,0,4-.8,6.25,6.25,0,0,0,2.63-2.08Q80.26,76.79,80.26,77.27Zm-2.2-10.15q0-7.92-6.39-7.91a6.29,6.29,0,0,0-5,2.1,8.84,8.84,0,0,0-2,5.81Z"/><path class="cls-1" d="M107.16,74.54c.91.84,1.36,1.45,1.36,1.8a1.54,1.54,0,0,1-.48,1,9,9,0,0,1-2.32,1.73,13.92,13.92,0,0,1-3.3,1.3,15.39,15.39,0,0,1-3.71.44c-4.56,0-8-1.48-10.5-4.42s-3.66-7.12-3.66-12.52,1.26-9.56,3.76-12.55S94.38,46.81,99,46.81a13.72,13.72,0,0,1,5,.88,10.8,10.8,0,0,1,3.86,2.44,1.65,1.65,0,0,1,.59,1.12,3.27,3.27,0,0,1-1,1.66h-.54a9.58,9.58,0,0,0-3.51-2.66,11,11,0,0,0-4.54-1q-5.52,0-8.4,3.78T87.58,63.85q0,6.93,2.93,10.74T99,78.39a10.36,10.36,0,0,0,6-1.9A12.16,12.16,0,0,0,107.16,74.54Z"/><path class="cls-1" d="M130.74,68.78c0,3.71-.91,6.64-2.71,8.78a10.77,10.77,0,0,1-15.33,0Q110,74.44,110,68.92a14.33,14.33,0,0,1,1.34-6.34A9.92,9.92,0,0,1,115,58.33a10.2,10.2,0,0,1,5.49-1.47A9.3,9.3,0,0,1,128.08,60C129.85,62.15,130.74,65.07,130.74,68.78Zm-3,0q0-4.74-1.86-7.13a7.33,7.33,0,0,0-11,.17,11.24,11.24,0,0,0-2,7c0,3.09.62,5.47,1.88,7.15a6.41,6.41,0,0,0,5.49,2.51A6.55,6.55,0,0,0,125.88,76Q127.76,73.51,127.76,68.78Z"/><path class="cls-1" d="M138.2,59.94a10.22,10.22,0,0,1,7.67-3.08q4.73,0,6.44,3.18a10.28,10.28,0,0,1,7.86-3.18,8.17,8.17,0,0,1,4.81,1.3,5.73,5.73,0,0,1,2.32,3.68,18.91,18.91,0,0,1,.39,4.35V80.05h-2.83V66.19a11.78,11.78,0,0,0-.44-3.66,3.85,3.85,0,0,0-1.76-2.39,7.13,7.13,0,0,0-3.56-.74,7.86,7.86,0,0,0-3.3.76,9.15,9.15,0,0,0-2.8,2,16.85,16.85,0,0,1,.39,4V80.05h-2.84V66.19a11.83,11.83,0,0,0-.43-3.66,3.81,3.81,0,0,0-1.79-2.39,7.17,7.17,0,0,0-3.54-.74,8.74,8.74,0,0,0-3.46.71A7.1,7.1,0,0,0,138.64,62a1.9,1.9,0,0,0-.39,1.22V80.05h-2.83V57.26h.2C137.34,57.26,138.2,58.15,138.2,59.94Z"/><path class="cls-1" d="M173.55,90.7V57.26h.19c1.73,0,2.59.81,2.59,2.44a9.61,9.61,0,0,1,3.13-2.05,9.82,9.82,0,0,1,3.85-.79,8.63,8.63,0,0,1,7,3q2.49,3,2.49,8.66a16.42,16.42,0,0,1-1.22,6.69,9.09,9.09,0,0,1-3.49,4.15,9.66,9.66,0,0,1-5.2,1.42,10.6,10.6,0,0,1-3.49-.59,8.14,8.14,0,0,1-2.15-1.15,7.47,7.47,0,0,1-.95-.85V90.7Zm16.3-21.83c0-3.12-.59-5.5-1.78-7.12a6.12,6.12,0,0,0-5.29-2.44,9.13,9.13,0,0,0-3.62.68,5.81,5.81,0,0,0-2.44,1.81,1.79,1.79,0,0,0-.39,1.07V75.61a8,8,0,0,0,2.71,2,7.9,7.9,0,0,0,3.44.78A6.52,6.52,0,0,0,188,76C189.23,74.37,189.85,72,189.85,68.87Z"/><path class="cls-1" d="M216.12,80.05a7,7,0,0,1-1.76.25,4,4,0,0,1-2.63-.81,3,3,0,0,1-1.08-2.27,10.78,10.78,0,0,1-7.91,3.27,7.65,7.65,0,0,1-5.25-1.71,6.24,6.24,0,0,1-1.92-4.93,6.41,6.41,0,0,1,1.56-4.37,10,10,0,0,1,4.54-2.73,22.21,22.21,0,0,1,6.74-1l1.12,0c.36,0,.71,0,1.07.08V64.72a5.6,5.6,0,0,0-1.34-4.17,6.1,6.1,0,0,0-4.32-1.29,12.9,12.9,0,0,0-3.71.53,9.58,9.58,0,0,0-3,1.52h-.44a3.11,3.11,0,0,1-.68-1.61c0-.43.42-.87,1.27-1.32a11.28,11.28,0,0,1,3.12-1.1,17.23,17.23,0,0,1,3.71-.42q4.4,0,6.33,1.91t1.92,6.39v9.77a10.26,10.26,0,0,0,.2,2.22,2.41,2.41,0,0,0,.68,1.29,3,3,0,0,0,1.81.54ZM210.65,67.9a4,4,0,0,0-.61-.05h-.66q-10.89,0-10.88,5.91A4.35,4.35,0,0,0,199.69,77a4.88,4.88,0,0,0,3.54,1.17,9.41,9.41,0,0,0,3.54-.68,10.11,10.11,0,0,0,2.78-1.64c.74-.63,1.1-1.16,1.1-1.59Z"/><path class="cls-1" d="M224.86,59.21a5.88,5.88,0,0,0-3.54,1A3.21,3.21,0,0,0,219.93,63a3,3,0,0,0,.46,1.66A4.16,4.16,0,0,0,221.9,66a17.21,17.21,0,0,0,3.59,1.26c.85.27,1.69.55,2.52.86a9.9,9.9,0,0,1,2.24,1.17,5.46,5.46,0,0,1,1.64,1.88,6.14,6.14,0,0,1,.63,2.93A6,6,0,0,1,230.3,79a8.72,8.72,0,0,1-5.74,1.83,16.58,16.58,0,0,1-4-.49,10.08,10.08,0,0,1-3-1.17,1.27,1.27,0,0,1-.51-1.86,13.29,13.29,0,0,1,.76-1.12,10.63,10.63,0,0,0,3,1.68,10,10,0,0,0,3.66.71,6,6,0,0,0,3.88-1.15,3.85,3.85,0,0,0,1.44-3.19,4.15,4.15,0,0,0-.49-2,4.08,4.08,0,0,0-1.59-1.51,16.66,16.66,0,0,0-3.83-1.32,16.77,16.77,0,0,1-4.22-1.63,5.31,5.31,0,0,1-1.86-2,6,6,0,0,1-.61-2.78,5.34,5.34,0,0,1,1-3.22A6.54,6.54,0,0,1,221,57.62a9.74,9.74,0,0,1,3.86-.76,11.81,11.81,0,0,1,3.66.54,7.71,7.71,0,0,1,2.73,1.47,1.83,1.83,0,0,1,.93,1.41,2,2,0,0,1-.22.86c-.14.31-.32.64-.51,1H231A7.17,7.17,0,0,0,224.86,59.21Z"/><path class="cls-1" d="M242.24,59.21a5.86,5.86,0,0,0-3.54,1A3.21,3.21,0,0,0,237.31,63a3,3,0,0,0,.46,1.66A4.16,4.16,0,0,0,239.28,66a17.21,17.21,0,0,0,3.59,1.26c.85.27,1.69.55,2.52.86a10.11,10.11,0,0,1,2.24,1.17,5.46,5.46,0,0,1,1.64,1.88,6.14,6.14,0,0,1,.63,2.93A6,6,0,0,1,247.68,79a8.72,8.72,0,0,1-5.74,1.83,16.52,16.52,0,0,1-4-.49,10.08,10.08,0,0,1-3-1.17,1.47,1.47,0,0,1-.73-1.13,1.48,1.48,0,0,1,.22-.73,13.29,13.29,0,0,1,.76-1.12,10.71,10.71,0,0,0,3,1.68,10.06,10.06,0,0,0,3.67.71,6,6,0,0,0,3.88-1.15,3.85,3.85,0,0,0,1.44-3.19,4.15,4.15,0,0,0-.49-2,4.08,4.08,0,0,0-1.59-1.51,16.66,16.66,0,0,0-3.83-1.32A16.61,16.61,0,0,1,237,67.73a5.31,5.31,0,0,1-1.86-2,5.91,5.91,0,0,1-.61-2.78,5.34,5.34,0,0,1,1-3.22,6.54,6.54,0,0,1,2.76-2.13,9.74,9.74,0,0,1,3.86-.76,11.81,11.81,0,0,1,3.66.54,7.71,7.71,0,0,1,2.73,1.47,1.83,1.83,0,0,1,.93,1.41,2,2,0,0,1-.22.86c-.15.31-.32.64-.51,1h-.44A7.19,7.19,0,0,0,242.24,59.21Z"/><path class="cls-2" d="M104,25.42a5.08,5.08,0,0,1-.19,1.22h0L89.43,23a11.91,11.91,0,0,1-8.84-9.68L78.64,1a3.56,3.56,0,0,1,3.28,2.65l1.51,5.72a11.88,11.88,0,0,0,8.66,8.51l7.51,1.84a5.38,5.38,0,0,1,2.84,1.52A5.76,5.76,0,0,1,104,24.44h0a4.59,4.59,0,0,1,0,1"/><path class="cls-3" d="M53.05,26.64a5.08,5.08,0,0,1-.19-1.22,4.89,4.89,0,0,0,.23,1.21Z"/><path class="cls-3" d="M104,24.8a5.08,5.08,0,0,0-.19-1.22h0L89.43,27.2a11.92,11.92,0,0,0-8.84,9.68l-2,12.38a3.57,3.57,0,0,0,3.28-2.65l1.51-5.72a11.88,11.88,0,0,1,8.66-8.51l7.51-1.85A5.44,5.44,0,0,0,102.44,29,5.76,5.76,0,0,0,104,25.78h0a4.59,4.59,0,0,0,0-1"/><path class="cls-4" d="M52.86,24.8a5.08,5.08,0,0,1,.19-1.22h0L67.41,27.2a11.92,11.92,0,0,1,8.84,9.68l2,12.38a3.57,3.57,0,0,1-3.28-2.65l-1.51-5.72a11.88,11.88,0,0,0-8.66-8.51l-7.51-1.85A5.44,5.44,0,0,1,54.4,29a5.76,5.76,0,0,1-1.52-3.24h0a4.59,4.59,0,0,1,0-1"/><path class="cls-5" d="M52.86,25.42a5.08,5.08,0,0,0,.19,1.22h0L67.41,23a11.91,11.91,0,0,0,8.84-9.68L78.2,1a3.56,3.56,0,0,0-3.28,2.65L73.41,9.33a11.88,11.88,0,0,1-8.66,8.51l-7.51,1.84A5.38,5.38,0,0,0,54.4,21.2a5.76,5.76,0,0,0-1.52,3.24h0a4.59,4.59,0,0,0,0,1"/></svg>