<svg id="Layer_1" data-name="Layer 1" xmlns="http://www.w3.org/2000/svg" viewBox="0 0 142.26 191.88"><defs><style>.cls-1{fill:#0086ff;}</style></defs><path class="cls-1" d="M116.63,0h0L52,82.54A30,30,0,0,0,51.57,119l63.91,72.86h0c21.8,0,34.43-24.69,21.69-42.38L91.45,99.19l45.3-57.81C149.93,24.59,138,0,116.63,0Z"/><ellipse class="cls-1" cx="23.14" cy="23.14" rx="23.18" ry="23.1" transform="translate(-9.59 23.14) rotate(-44.99)"/><path class="cls-1" d="M45.6,81.9v84.71a25.27,25.27,0,0,1-25.27,25.27H.69V81.9A22.45,22.45,0,0,1,23.2,59.45h0A22.45,22.45,0,0,1,45.6,81.9Z"/></svg>